<svg id="Capa_1" data-name="Capa 1" xmlns="http://www.w3.org/2000/svg" viewBox="0 0 225.2 292.5"><title>user Kopie 2_minified</title><path d="M205.4,171.9l-.7-.4-5-2.5c-1.9-.9-3.7-1.7-5.6-2.4l-4.6-1.6c-2.3-.8-4.7-1.5-7.1-2.1l-2.5-.6h-.6l-4.3-.9h-.8l-3.7-.6-4.3-.4a92.6,92.6,0,0,0-15.8.1h-2.2l-1.8.2-4.8.8h-.5l-3.3.7-3.6.8-6.8,2c-1.8.6-3.5,1.2-5.1,1.9l-1.1.5a95.5,95.5,0,0,0-10.2,4.9l-.9.5h0C71.1,194.6,46,241,46,291.4c0,1.2.1,2.3.1,3.4l.3,8H270.8l.3-7.9c.1-1.2.1-2.3.1-3.5C271,240.2,245.3,193.4,205.4,171.9ZM56.8,290c.5-45.3,23.4-86.8,58.3-105.9l1.1-.5h.1a92,92,0,0,1,8.4-4l.9-.4,4.7-1.7c2-.7,4.1-1.3,6.1-1.8l3.2-.8,2.6-.5h.4l4.7-.8,3.6-.4a80.1,80.1,0,0,1,14.7,0l3.5.3,2.8.4,1.3.2,3.9.8h.6l2.2.5,6.4,1.9,4.1,1.5,5.1,2.2,4.8,2.4h.3c35.7,19.1,58.9,60.8,59.4,106.5Zm74.8-146,2.5.9,1.8.6,2.1.7a68.7,68.7,0,0,0,20.2,3.1h.5a53.7,53.7,0,0,0,7-.4l2.3-.3,1.7-.3,2.9-.5,2-.5,1.9-.5,2.7-.7,1.7-.6,1.5-.5,3.2-1.2,1.2-.6.5-.2,4.4-2.1.9-.6c1.6-.9,3.3-1.9,4.9-3l2.5-1.9,2.8-2.2A69,69,0,0,0,228,80.3v-.6A69.4,69.4,0,0,0,89.4,75.3v.9c-.1,1.1-.2,2.3-.2,3.5A69.6,69.6,0,0,0,131.6,144ZM100.2,77.3v-1a58.4,58.4,0,0,1,58.3-54.8c32.3,0,58.5,26.3,58.6,58v.6a58.5,58.5,0,0,1-21.4,45.1l-2.6,2-1.9,1.4c-1.3.9-2.7,1.7-4.1,2.5l-.8.5-3.7,1.8-1.4.7-2.6.9-1.8.6-1,.4-2,.5-2.2.6-1.3.3-2.2.3-2.1.3-1.6.2a49.3,49.3,0,0,1-5.5.3h-.5a59.6,59.6,0,0,1-17.4-2.6l-1.4-.5-2-.7-1.9-.7a58.5,58.5,0,0,1-35.7-53.9A12.9,12.9,0,0,1,100.2,77.3Z" transform="translate(-46 -10.3)"/></svg>